<svg width="263" height="70" viewBox="0 0 263 70" fill="none" xmlns="http://www.w3.org/2000/svg">
<path d="M92 53.5C89.0667 53.5 86.55 53.05 84.45 52.15C83.35 51.7167 82.45 51.25 81.75 50.75L83.5 47.75H84C84.4667 48.0833 85.15 48.4667 86.05 48.9C87.85 49.6333 89.6667 50 91.5 50C93.7333 50 95.45 49.4667 96.65 48.4C97.8833 47.3 98.5 45.8333 98.5 44C98.5 42.8333 98.1833 41.85 97.55 41.05C96.9167 40.2167 96.1333 39.5333 95.2 39C94.2667 38.4667 92.9833 37.8167 91.35 37.05C89.3833 36.1833 87.8 35.3833 86.6 34.65C85.4 33.8833 84.3667 32.8833 83.5 31.65C82.6667 30.3833 82.25 28.8333 82.25 27C82.25 25.1667 82.6667 23.5333 83.5 22.1C84.3667 20.6667 85.5833 19.55 87.15 18.75C88.75 17.9167 90.6167 17.5 92.75 17.5C95.55 17.5 97.9833 17.9667 100.05 18.9C100.95 19.2667 101.767 19.7167 102.5 20.25L100.75 23.25H100.25C99.8167 22.8833 99.2167 22.5167 98.45 22.15C96.7833 21.3833 95.05 21 93.25 21C91.55 21 90.1167 21.55 88.95 22.65C87.8167 23.7167 87.25 25 87.25 26.5C87.25 27.6667 87.5667 28.6667 88.2 29.5C88.8333 30.3 89.6167 30.9667 90.55 31.5C91.4833 32.0333 92.7667 32.6833 94.4 33.45C96.3667 34.3167 97.95 35.1333 99.15 35.9C100.35 36.6333 101.367 37.6333 102.2 38.9C103.067 40.1333 103.5 41.6667 103.5 43.5C103.5 46.5667 102.5 49 100.5 50.8C98.5 52.6 95.6667 53.5 92 53.5ZM118.494 53.5C115.127 53.5 112.494 52.4 110.594 50.2C108.694 48 107.744 44.7667 107.744 40.5C107.744 36.2333 108.694 33 110.594 30.8C112.494 28.6 115.127 27.5 118.494 27.5C121.827 27.5 124.444 28.6 126.344 30.8C128.277 33 129.244 36.2333 129.244 40.5C129.244 44.7667 128.277 48 126.344 50.2C124.444 52.4 121.827 53.5 118.494 53.5ZM118.494 50C120.227 50 121.611 49.25 122.644 47.75C123.711 46.2167 124.244 43.8 124.244 40.5C124.244 37.2 123.711 34.8 122.644 33.3C121.611 31.7667 120.227 31 118.494 31C116.761 31 115.361 31.7667 114.294 33.3C113.261 34.8 112.744 37.2 112.744 40.5C112.744 43.8 113.261 46.2167 114.294 47.75C115.361 49.25 116.761 50 118.494 50ZM145.258 53.5C141.791 53.5 139.091 52.4 137.158 50.2C135.224 48 134.258 44.7667 134.258 40.5C134.258 36.2333 135.191 33 137.058 30.8C138.958 28.6 141.524 27.5 144.758 27.5C146.958 27.5 148.958 27.9667 150.758 28.9C151.624 29.3 152.374 29.75 153.008 30.25L151.258 33.25H150.758C150.324 32.9167 149.774 32.55 149.108 32.15C147.708 31.3833 146.424 31 145.258 31C143.391 31 141.924 31.75 140.858 33.25C139.791 34.75 139.258 37.1667 139.258 40.5C139.258 43.8667 139.808 46.3 140.908 47.8C142.041 49.2667 143.658 50 145.758 50C146.991 50 148.274 49.6333 149.608 48.9C150.308 48.5 150.858 48.1167 151.258 47.75H151.758L153.508 50.75C152.908 51.25 152.158 51.7167 151.258 52.15C149.524 53.05 147.524 53.5 145.258 53.5ZM160.762 24C159.895 24 159.178 23.7167 158.612 23.15C158.045 22.5833 157.762 21.8667 157.762 21C157.762 20.1333 158.045 19.4167 158.612 18.85C159.178 18.2833 159.895 18 160.762 18C161.628 18 162.345 18.2833 162.912 18.85C163.478 19.4167 163.762 20.1333 163.762 21C163.762 21.8667 163.478 22.5833 162.912 23.15C162.345 23.7167 161.628 24 160.762 24ZM158.262 53V28H163.262V53H158.262ZM177.512 53.5C174.912 53.5 172.878 52.8167 171.412 51.45C169.978 50.05 169.262 48.15 169.262 45.75C169.262 43.3833 170.112 41.55 171.812 40.25C173.545 38.9167 176.278 38.25 180.012 38.25H184.012V37C184.012 35.0333 183.545 33.55 182.612 32.55C181.712 31.5167 180.428 31 178.762 31C177.562 31 176.262 31.3833 174.862 32.15C174.162 32.55 173.628 32.9167 173.262 33.25H172.762L171.012 30.25C171.678 29.75 172.428 29.3 173.262 28.9C175.062 27.9667 177.062 27.5 179.262 27.5C181.162 27.5 182.845 27.9167 184.312 28.75C185.778 29.55 186.928 30.6833 187.762 32.15C188.595 33.5833 189.012 35.2 189.012 37V53H185.512L185.012 50H184.762C184.295 50.6667 183.712 51.25 183.012 51.75C181.545 52.9167 179.712 53.5 177.512 53.5ZM178.762 49.75C179.995 49.75 181.245 49.25 182.512 48.25C183.078 47.7833 183.578 47.2833 184.012 46.75V41.75H180.012C178.112 41.75 176.678 42.1167 175.712 42.85C174.745 43.5833 174.262 44.55 174.262 45.75C174.262 47.05 174.628 48.05 175.362 48.75C176.128 49.4167 177.262 49.75 178.762 49.75ZM196.25 53V19.5L197.75 18H201.25V53H196.25ZM211.25 24C210.383 24 209.667 23.7167 209.1 23.15C208.533 22.5833 208.25 21.8667 208.25 21C208.25 20.1333 208.533 19.4167 209.1 18.85C209.667 18.2833 210.383 18 211.25 18C212.117 18 212.833 18.2833 213.4 18.85C213.967 19.4167 214.25 20.1333 214.25 21C214.25 21.8667 213.967 22.5833 213.4 23.15C212.833 23.7167 212.117 24 211.25 24ZM208.75 53V28H213.75V53H208.75ZM230.5 53.5C228 53.5 226 52.7667 224.5 51.3C223 49.8333 222.25 47.9 222.25 45.5V31.5H218.5V28.5L225 22H227.25V28H233.5V31.5H227.25V45.5C227.25 46.9667 227.583 48.0833 228.25 48.85C228.917 49.6167 229.833 50 231 50C232 50 232.983 49.6667 233.95 49C234.383 48.7 234.817 48.3667 235.25 48H235.75L237.5 51C236.767 51.5667 236.1 51.9833 235.5 52.25C233.9 53.0833 232.233 53.5 230.5 53.5ZM251.02 53.5C247.553 53.5 244.853 52.4 242.92 50.2C240.986 48 240.02 44.7667 240.02 40.5C240.02 36.2667 240.953 33.05 242.82 30.85C244.686 28.6167 247.17 27.5 250.27 27.5C253.37 27.5 255.853 28.6167 257.72 30.85C259.586 33.05 260.52 36.2667 260.52 40.5V41.25L259.52 42.25H245.02C245.02 44.8167 245.586 46.75 246.72 48.05C247.853 49.35 249.453 50 251.52 50C252.753 50 254.036 49.6333 255.37 48.9C256.07 48.5 256.62 48.1167 257.02 47.75H257.52L259.27 50.75C258.67 51.25 257.92 51.7167 257.02 52.15C255.286 53.05 253.286 53.5 251.02 53.5ZM255.52 38.75C255.52 36.1167 255.036 34.1667 254.07 32.9C253.136 31.6333 251.87 31 250.27 31C248.67 31 247.386 31.6333 246.42 32.9C245.486 34.1667 245.02 36.1167 245.02 38.75H255.52Z" fill="#F9F9F9"/>
<ellipse cx="33.8624" cy="35" rx="33.8623" ry="35" fill="#C4C4C4"/>
<path d="M61.1603 29.4C66.0423 35.2584 65.4052 44.0982 59.7372 49.1442C54.0693 54.1903 45.5168 53.5318 40.6348 47.6734C40.6348 47.6734 45.2296 43.5828 50.8976 38.5368C56.5656 33.4907 61.1603 29.4 61.1603 29.4Z" fill="white"/>
<path d="M8.83972 29.4366C3.95768 35.295 4.59479 44.1348 10.2628 49.1809C15.9307 54.2269 24.4832 53.5684 29.3652 47.71C29.3652 47.71 24.7704 43.6195 19.1024 38.5734C13.4344 33.5273 8.83972 29.4366 8.83972 29.4366Z" fill="white"/>
<rect x="19.6401" y="16.8" width="3.38623" height="14" rx="1.69312" fill="white"/>
<rect x="44.6982" y="13.3" width="3.38623" height="21" rx="1.69312" fill="white"/>
<rect x="32.5078" y="14" width="3.38623" height="14" rx="1.69312" fill="white"/>
<rect x="38.603" y="6.30002" width="3.38623" height="35" rx="1.69312" fill="white"/>
<rect x="25.7354" y="9.80002" width="3.38623" height="25.2" rx="1.69312" fill="white"/>
</svg>
