<svg width="100" height="100" viewBox="0 0 100 100" fill="none" xmlns="http://www.w3.org/2000/svg">
<ellipse cx="48.3748" cy="50" rx="48.3747" ry="50" fill="#C4C4C4"/>
<path d="M87.3718 41.9999C94.3462 50.3691 93.436 62.9974 85.3389 70.2061C77.2419 77.4147 65.024 76.474 58.0497 68.1049C58.0497 68.1049 64.6138 62.2612 72.7109 55.0525C80.808 47.8439 87.3718 41.9999 87.3718 41.9999Z" fill="white"/>
<path d="M12.6282 42.0523C5.65387 50.4214 6.56403 63.0497 14.6611 70.2584C22.7582 77.4671 34.976 76.5263 41.9504 68.1572C41.9504 68.1572 35.3863 62.3135 27.2892 55.1049C19.1921 47.8962 12.6282 42.0523 12.6282 42.0523Z" fill="white"/>
<rect x="28.0573" y="24" width="4.83747" height="20" rx="2.41874" fill="white"/>
<rect x="63.8546" y="19" width="4.83747" height="30" rx="2.41874" fill="white"/>
<rect x="46.4398" y="20" width="4.83747" height="20" rx="2.41874" fill="white"/>
<rect x="55.1472" y="9" width="4.83747" height="50" rx="2.41874" fill="white"/>
<rect x="36.7648" y="14" width="4.83747" height="36" rx="2.41874" fill="white"/>
</svg>
